<?xml version="1.0" encoding="UTF-8" standalone="no"?>
<svg
   width="1200"
   height="400"
   viewBox="0 0 1200 400"
   role="img"
   aria-label="touchdeck logo"
   version="1.1"
   id="svg3"
   sodipodi:docname="touchdeck-logo.svg"
   inkscape:version="1.4.2 (ebf0e940d0, 2025-05-08)"
   xmlns:inkscape="http://www.inkscape.org/namespaces/inkscape"
   xmlns:sodipodi="http://sodipodi.sourceforge.net/DTD/sodipodi-0.dtd"
   xmlns="http://www.w3.org/2000/svg"
   xmlns:svg="http://www.w3.org/2000/svg">
  <sodipodi:namedview
     id="namedview3"
     pagecolor="#ffffff"
     bordercolor="#000000"
     borderopacity="0.25"
     inkscape:showpageshadow="2"
     inkscape:pageopacity="0.0"
     inkscape:pagecheckerboard="0"
     inkscape:deskcolor="#d1d1d1"
     inkscape:zoom="0.74208333"
     inkscape:cx="586.18753"
     inkscape:cy="210.21898"
     inkscape:window-width="1920"
     inkscape:window-height="1002"
     inkscape:window-x="0"
     inkscape:window-y="0"
     inkscape:window-maximized="1"
     inkscape:current-layer="g3" />
  <defs
     id="defs3">
    <linearGradient
       id="touchdeckGradient"
       x1="0"
       y1="0"
       x2="1"
       y2="0">
      <stop
         offset="0%"
         stop-color="#38BDF8"
         id="stop1" />
      <stop
         offset="55%"
         stop-color="#818CF8"
         id="stop2" />
      <stop
         offset="100%"
         stop-color="#A78BFA"
         id="stop3" />
    </linearGradient>
  </defs>
  <!-- Transparent background by default -->
  <g
     id="g3">
    <path
       d="m 295.92285,181.78711 v 13.94531 h -14.76562 v 40.94727 q 0,4.16992 1.70898,6.15234 1.77734,1.91406 5.87891,1.91406 1.23047,0 3.21289,-0.27343 1.98242,-0.3418 3.28125,-0.61524 l 2.80273,13.74024 q -2.93945,0.88867 -6.01562,1.23046 -3.07617,0.41016 -5.87891,0.41016 -11.00586,0 -16.88476,-5.46875 -5.87891,-5.46875 -5.87891,-15.58594 v -42.45117 h -10.86914 v -13.94531 h 10.86914 v -18.18359 h 17.77344 v 18.18359 z m 43.36914,77.99805 q -11.14258,0 -19.3457,-4.92188 -8.20313,-4.99023 -12.71484,-13.80859 -4.44336,-8.88672 -4.44336,-20.64453 0,-11.89454 4.44336,-20.78125 4.51171,-8.95508 12.71484,-13.87696 8.20312,-4.92187 19.3457,-4.92187 11.14258,0 19.34571,4.92187 8.20312,4.92188 12.71484,13.87696 4.51172,8.88671 4.51172,20.78125 0,11.75781 -4.51172,20.64453 -4.51172,8.81836 -12.71484,13.80859 -8.20313,4.92188 -19.34571,4.92188 z m 0,-14.42383 q 6.22071,0 10.32227,-3.34961 4.10156,-3.34961 6.15234,-9.02344 2.05078,-5.67383 2.05078,-12.64648 0,-7.04102 -2.05078,-12.71485 -2.05078,-5.67383 -6.15234,-9.02343 -4.10156,-3.34961 -10.32227,-3.34961 -6.15234,0 -10.2539,3.34961 -4.10157,3.3496 -6.15235,9.02343 -1.98242,5.67383 -1.98242,12.71485 0,6.97265 1.98242,12.64648 2.05078,5.67383 6.15235,9.02344 4.10156,3.34961 10.2539,3.34961 z m 75.77149,13.80859 q -11.82618,0 -19.00391,-7.51953 -7.17773,-7.51953 -7.17773,-21.25977 v -48.60351 h 17.77343 v 45.86914 q 0,7.65625 3.96485,12.03125 4.0332,4.375 11.00586,4.375 7.10937,0 11.68945,-4.58008 4.58008,-4.58008 4.58008,-12.91992 v -44.77539 h 17.84179 v 76.42578 h -16.88476 l -0.13672,-15.3125 q -6.83594,16.26953 -23.65234,16.26953 z m 90.19531,0.61524 q -11.14258,0 -19.3457,-4.92188 -8.20313,-4.99023 -12.71485,-13.80859 -4.44336,-8.88672 -4.44336,-20.64453 0,-11.89454 4.44336,-20.78125 4.51172,-8.95508 12.71485,-13.87696 8.20312,-4.92187 19.3457,-4.92187 12.7832,0 21.60156,6.42578 8.88672,6.35742 11.34766,17.56836 l -16.61133,3.48633 q -1.43555,-5.94727 -5.60547,-9.50196 -4.16992,-3.55468 -10.5957,-3.55468 -9.29688,0 -13.94531,7.17773 -4.58008,7.17773 -4.58008,17.91016 0,7.04101 2.05078,12.71484 2.05078,5.67383 6.15234,9.02344 4.10156,3.28125 10.32227,3.28125 6.5625,0 10.73242,-3.69141 4.23828,-3.75976 5.67383,-9.91211 l 16.61133,3.48633 q -2.46094,11.41602 -11.34766,17.97852 -8.88672,6.5625 -21.80664,6.5625 z m 63.67187,-46.34766 v 44.77539 H 551.15723 V 156.35742 h 17.5 v 39.58008 q 6.97265,-15.10742 23.17382,-15.10742 11.82618,0 19.00391,7.51953 7.17774,7.51953 7.17774,21.25976 v 48.60352 h -17.8418 v -45.86914 q 0,-7.65625 -3.96485,-12.03125 -3.96484,-4.375 -10.9375,-4.375 -7.10937,0 -11.75781,4.58008 -4.58008,4.58008 -4.58008,12.91992 z m 93.61329,46.14258 q -9.02344,0 -16.20118,-4.58008 -7.10937,-4.64844 -11.21093,-13.4668 -4.10157,-8.81836 -4.10157,-21.39648 0,-12.71485 4.16993,-21.46485 4.16992,-8.81835 11.27929,-13.33007 7.17774,-4.51172 15.9961,-4.51172 6.83593,0 11.14257,2.32422 4.375,2.25586 6.9043,5.46875 2.5293,3.14453 3.89649,5.81054 h 0.75195 v -38.07617 h 17.77344 V 258.21289 H 685.5127 v -12.09961 h -1.09375 q -1.43555,2.73438 -4.03321,5.87891 -2.59765,3.14453 -6.97265,5.40039 -4.30664,2.1875 -10.86914,2.1875 z m 4.85351,-14.62891 q 8.68164,0 13.39844,-6.83594 4.7168,-6.90429 4.7168,-18.04687 0,-11.14258 -4.7168,-17.8418 -4.64844,-6.76758 -13.39844,-6.76758 -9.02344,0 -13.60351,6.97266 -4.58008,6.97266 -4.58008,17.63672 0,10.73242 4.58008,17.8418 4.64843,7.04101 13.60351,7.04101 z m 85.61524,14.83399 q -11.55274,0 -19.89258,-4.85352 -8.27149,-4.85352 -12.78321,-13.67187 -4.44336,-8.81836 -4.44336,-20.78125 0,-11.75782 4.375,-20.64454 4.44336,-8.95507 12.50977,-13.94531 8.13477,-5.05859 19.07227,-5.05859 9.29687,0 17.22656,4.10156 7.99805,4.0332 12.85156,12.57813 4.85352,8.47656 4.85352,21.875 v 5.60546 h -53.1836 q 0.3418,10.18555 5.67383,15.51758 5.40039,5.33203 13.94531,5.33203 5.87891,0 10.04883,-2.52929 4.23828,-2.5293 6.01563,-7.38282 l 16.33789,3.34961 q -2.73438,9.22852 -11.34766,14.90235 -8.54492,5.60547 -21.25976,5.60547 z m -19.34571,-46.89454 h 35.82031 q -0.82031,-8.20312 -5.26367,-13.125 -4.375,-4.99023 -12.30468,-4.99023 -8.13477,0 -12.91993,5.26367 -4.71679,5.19531 -5.33203,12.85156 z m 99.01367,46.89454 q -11.14257,0 -19.3457,-4.92188 -8.20312,-4.99023 -12.71484,-13.80859 -4.44336,-8.88672 -4.44336,-20.64453 0,-11.89454 4.44336,-20.78125 4.51172,-8.95508 12.71484,-13.87696 8.20313,-4.92187 19.3457,-4.92187 12.78321,0 21.60157,6.42578 8.88672,6.35742 11.34765,17.56836 l -16.61133,3.48633 q -1.43554,-5.94727 -5.60546,-9.50196 -4.16993,-3.55468 -10.59571,-3.55468 -9.29687,0 -13.94531,7.17773 -4.58008,7.17773 -4.58008,17.91016 0,7.04101 2.05078,12.71484 2.05078,5.67383 6.15235,9.02344 4.10156,3.28125 10.32226,3.28125 6.5625,0 10.73242,-3.69141 4.23829,-3.75976 5.67383,-9.91211 l 16.61133,3.48633 q -2.46094,11.41602 -11.34766,17.97852 -8.88671,6.5625 -21.80664,6.5625 z m 45.89844,-1.57227 V 156.35742 h 17.77344 v 56.25977 h 1.29883 l 27.54883,-30.83008 h 20.8496 l -29.5996,33.01758 31.37695,43.4082 h -21.32813 l -23.58398,-32.74414 -6.5625,7.04102 v 25.70312 z"
       id="text3"
       style="font-weight:600;font-size:140px;font-family:Inter, 'SF Pro Display', system-ui, '-apple-system', 'Segoe UI', Roboto, 'Helvetica Neue', Arial, sans-serif;letter-spacing:-2.5;dominant-baseline:middle;text-anchor:middle;fill:url(#touchdeckGradient)"
       aria-label="touchdeck" />
  </g>
</svg>
