<?xml version="1.0" encoding="UTF-8" standalone="no"?>
<svg
   width="512"
   height="512"
   viewBox="0 0 512 512"
   role="img"
   aria-label="touchdeck square logo (stacked)"
   version="1.1"
   id="svg4"
   sodipodi:docname="touchdeck-square-stacked.svg"
   inkscape:version="1.4.2 (ebf0e940d0, 2025-05-08)"
   xmlns:inkscape="http://www.inkscape.org/namespaces/inkscape"
   xmlns:sodipodi="http://sodipodi.sourceforge.net/DTD/sodipodi-0.dtd"
   xmlns="http://www.w3.org/2000/svg"
   xmlns:svg="http://www.w3.org/2000/svg">
  <sodipodi:namedview
     id="namedview4"
     pagecolor="#ffffff"
     bordercolor="#000000"
     borderopacity="0.25"
     inkscape:showpageshadow="2"
     inkscape:pageopacity="0.0"
     inkscape:pagecheckerboard="0"
     inkscape:deskcolor="#d1d1d1"
     inkscape:zoom="1.5507812"
     inkscape:cx="256"
     inkscape:cy="256"
     inkscape:window-width="1920"
     inkscape:window-height="1002"
     inkscape:window-x="0"
     inkscape:window-y="0"
     inkscape:window-maximized="1"
     inkscape:current-layer="svg4" />
  <defs
     id="defs3">
    <linearGradient
       id="g"
       x1="0"
       y1="0"
       x2="1"
       y2="0">
      <stop
         offset="0%"
         stop-color="#38BDF8"
         id="stop1" />
      <stop
         offset="55%"
         stop-color="#818CF8"
         id="stop2" />
      <stop
         offset="100%"
         stop-color="#A78BFA"
         id="stop3" />
    </linearGradient>
  </defs>
  <path
     id="rect3"
     style="fill:#0b1020"
     d="m 144,32 h 224 c 62.048,0 112,49.952 112,112 v 224 c 0,62.048 -49.952,112 -112,112 H 144 C 81.952,480 32,430.048 32,368 V 144 C 32,81.952 81.952,32 144,32 Z" />
  <g
     fill="url(#g)"
     font-family="Inter, SF Pro Display, system-ui, -apple-system, Segoe UI, Roboto, Helvetica Neue, Arial, sans-serif"
     font-weight="700"
     text-anchor="middle"
     id="g4">
    <path
       d="m 130.08994,165.40039 v 13.6416 h -12.45019 v 33.47852 q 0,6.19531 6.07617,6.19531 1.01269,0 2.7998,-0.23828 1.84668,-0.29785 2.85938,-0.53613 l 2.56152,13.40332 q -2.97851,0.89355 -5.95703,1.25097 -2.91895,0.35742 -5.59961,0.35742 -10.00781,0 -15.30957,-4.82519 -5.301758,-4.88477 -5.301758,-14.05859 v -35.02735 h -9.173828 v -13.6416 h 9.173828 v -15.8457 h 17.871098 v 15.8457 z m 38.00996,67.91016 q -10.00781,0 -17.33496,-4.28907 -7.32715,-4.34863 -11.31836,-12.0332 -3.93164,-7.74414 -3.93164,-17.99023 0,-10.30567 3.93164,-18.04981 3.99121,-7.74414 11.31836,-12.0332 7.32715,-4.34863 17.33496,-4.34863 10.00781,0 17.33496,4.34863 7.32715,4.28906 11.25879,12.0332 3.99121,7.74414 3.99121,18.04981 0,10.24609 -3.99121,17.99023 -3.93164,7.68457 -11.25879,12.0332 -7.32715,4.28907 -17.33496,4.28907 z m 0,-14.0586 q 7.14844,0 10.78223,-5.77832 3.63379,-5.77832 3.63379,-14.53515 0,-8.81641 -3.63379,-14.53516 -3.63379,-5.77832 -10.78223,-5.77832 -7.14844,0 -10.78222,5.77832 -3.57422,5.71875 -3.57422,14.53516 0,8.75683 3.57422,14.53515 3.63378,5.77832 10.78222,5.77832 z m 65.76973,13.58203 q -10.36524,0 -16.67969,-6.67187 -6.25488,-6.67188 -6.25488,-18.40723 v -42.35449 h 17.87109 v 39.25684 q 0,6.19531 3.2168,9.70996 3.21679,3.51465 8.8164,3.51465 5.71875,0 9.29297,-3.63379 3.63379,-3.69336 3.63379,-10.30567 v -38.54199 h 17.93067 V 232 h -16.91797 l -0.23828,-13.82031 q -2.79981,7.08886 -7.98243,10.90136 -5.12304,3.75293 -12.68847,3.75293 z m 80.60273,0.47657 q -10.06739,0 -17.39453,-4.28907 -7.26758,-4.34863 -11.25879,-12.0332 -3.93164,-7.74414 -3.93164,-17.99023 0,-10.30567 3.93164,-18.04981 3.99121,-7.74414 11.25879,-12.0332 7.32714,-4.34863 17.39453,-4.34863 11.85449,0 19.77734,5.95703 7.92285,5.89746 9.8291,16.20312 l -16.62011,3.09766 q -1.13184,-5.18262 -4.40821,-8.16113 -3.21679,-3.03809 -8.39941,-3.03809 -7.14844,0 -10.8418,5.65918 -3.69336,5.59961 -3.69336,14.6543 0,8.93554 3.69336,14.65429 3.69336,5.65918 10.8418,5.65918 5.18262,0 8.51855,-3.09765 3.33594,-3.15723 4.40821,-8.51856 l 16.62011,3.03809 q -1.90625,10.54394 -9.8291,16.62012 -7.92285,6.0166 -19.89648,6.0166 z m 57.66818,-39.85254 V 232 h -17.87109 v -88.75977 h 17.51367 v 34.90821 q 2.91894,-6.49317 7.92285,-10.00782 5.00391,-3.57421 12.39062,-3.57421 10.36524,0 16.62012,6.67187 6.31445,6.67188 6.31445,18.40723 V 232 H 397.1005 v -39.25684 q 0,-6.19531 -3.2168,-9.70996 -3.15722,-3.51465 -8.8164,-3.51465 -5.71875,0 -9.35254,3.69336 -3.57422,3.63379 -3.57422,10.2461 z"
       id="text3"
       style="font-size:122px;letter-spacing:-2.2"
       aria-label="touch" />
    <path
       d="m 145.22285,343.13184 q -7.68457,0 -13.82031,-3.93164 -6.13574,-3.99122 -9.76953,-11.61622 -3.57422,-7.68457 -3.57422,-18.76464 0,-11.37793 3.69336,-19.00293 3.69336,-7.625 9.8291,-11.4375 6.13574,-3.8125 13.52246,-3.8125 5.65918,0 9.41211,1.90625 3.75293,1.90625 6.0166,4.70605 2.32324,2.79981 3.51465,5.4209 h 0.5957 v -33.35938 h 17.8711 V 342 h -17.57324 v -10.66309 h -0.89356 q -1.25098,2.68067 -3.57422,5.4209 -2.32324,2.68067 -6.07617,4.52735 -3.75293,1.84668 -9.17383,1.84668 z m 5.48047,-14.35645 q 6.79102,0 10.54395,-5.48047 3.75293,-5.48047 3.75293,-14.53515 0,-9.05469 -3.75293,-14.47559 -3.69336,-5.4209 -10.54395,-5.4209 -7.0293,0 -10.66309,5.59961 -3.63378,5.54004 -3.63378,14.29688 0,8.8164 3.63378,14.41601 3.69336,5.59961 10.66309,5.59961 z m 74.94356,14.53516 q -10.18653,0 -17.57324,-4.16993 -7.38672,-4.16992 -11.37793,-11.85449 -3.93164,-7.68457 -3.93164,-18.22851 0,-10.30567 3.93164,-18.04981 3.99121,-7.74414 11.13964,-12.09277 7.20801,-4.34863 16.91797,-4.34863 8.69727,0 15.78614,3.69336 7.08886,3.69335 11.25879,11.19921 4.22949,7.50586 4.22949,18.88379 v 5.00391 h -45.57129 q 0.29785,8.16113 4.52734,12.33105 4.22949,4.16993 10.96094,4.16993 4.70605,0 8.04199,-1.96582 3.39551,-2.02539 4.8252,-5.89747 l 16.20312,3.03809 q -2.44238,8.28027 -10.12695,13.28418 -7.625,5.00391 -19.24121,5.00391 z m -15.07129,-41.16309 h 28.23633 q -0.65528,-6.49316 -4.16992,-10.30566 -3.51465,-3.8125 -9.70997,-3.8125 -6.43359,0 -10.12695,3.99121 -3.69336,3.93164 -4.22949,10.12695 z m 85.24922,41.16309 q -10.06738,0 -17.39453,-4.28907 -7.26758,-4.34863 -11.25879,-12.0332 -3.93164,-7.74414 -3.93164,-17.99023 0,-10.30567 3.93164,-18.04981 3.99121,-7.74414 11.25879,-12.0332 7.32715,-4.34863 17.39453,-4.34863 11.85449,0 19.77734,5.95703 7.92286,5.89746 9.82911,16.20312 l -16.62012,3.09766 q -1.13184,-5.18262 -4.4082,-8.16113 -3.2168,-3.03809 -8.39942,-3.03809 -7.14844,0 -10.8418,5.65918 -3.69335,5.59961 -3.69335,14.6543 0,8.93554 3.69335,14.65429 3.69336,5.65918 10.8418,5.65918 5.18262,0 8.51856,-3.09765 3.33593,-3.15723 4.4082,-8.51856 l 16.62012,3.03809 q -1.90625,10.54394 -9.8291,16.62012 -7.92286,6.0166 -19.89649,6.0166 z M 335.62187,342 v -88.75977 h 17.87109 v 47.77539 h 1.0127 l 21.80273,-25.61523 h 20.6709 L 372.0789,304.29199 398.23027,342 h -21.02832 l -18.58594,-27.16406 -5.12305,5.77832 V 342 Z"
       id="text4"
       style="font-size:122px;letter-spacing:-2.2"
       aria-label="deck" />
  </g>
</svg>
